<?xml version="1.0" encoding="UTF-8" standalone="no"?>
<svg
   id="Layer_1"
   data-name="Layer 1"
   viewBox="0 0 348.1 196.96"
   version="1.1"
   sodipodi:docname="logo.svg"
   inkscape:version="1.2 (dc2aedaf03, 2022-05-15)"
   xmlns:inkscape="http://www.inkscape.org/namespaces/inkscape"
   xmlns:sodipodi="http://sodipodi.sourceforge.net/DTD/sodipodi-0.dtd"
   xmlns="http://www.w3.org/2000/svg"
   xmlns:svg="http://www.w3.org/2000/svg">
  <sodipodi:namedview
     id="namedview62"
     pagecolor="#ffffff"
     bordercolor="#000000"
     borderopacity="0.25"
     inkscape:showpageshadow="2"
     inkscape:pageopacity="0.0"
     inkscape:pagecheckerboard="0"
     inkscape:deskcolor="#d1d1d1"
     showgrid="false"
     inkscape:zoom="3.4645216"
     inkscape:cx="174.62728"
     inkscape:cy="99.725168"
     inkscape:window-width="1648"
     inkscape:window-height="1230"
     inkscape:window-x="1595"
     inkscape:window-y="89"
     inkscape:window-maximized="0"
     inkscape:current-layer="Layer_1" />
  <defs
     id="defs35">
    <style
       id="style33">.cls-1{fill:#99425b;}.cls-2{fill:#fff;}.cls-3{fill:#e9551d;}.cls-4{fill:#ef7c10;}.cls-5{fill:#f6a307;}.cls-6{fill:#b91d1b;}.cls-7{fill:#020203;}</style>
    <mask
       id="mask-2"
       fill="white">
      <path
         d="m 128,0 c 70.74909,0 128,57.250909 128,128 0,70.74909 -57.25091,128 -128,128 C 57.250909,256 0,198.74909 0,128 0,57.250909 57.250909,0 128,0 Z"
         id="use263" />
    </mask>
    <filter
       x="-0.0192"
       y="-0.0192"
       width="1.0384"
       height="1.0384"
       filterUnits="objectBoundingBox"
       id="filter-4">
      <feOffset
         dx="0"
         dy="0"
         in="SourceAlpha"
         result="shadowOffsetOuter1"
         id="feOffset254" />
      <feGaussianBlur
         stdDeviation="2"
         in="shadowOffsetOuter1"
         result="shadowBlurOuter1"
         id="feGaussianBlur256" />
      <feColorMatrix
         values="0 0 0 0 0   0 0 0 0 0   0 0 0 0 0  0 0 0 0.3 0"
         type="matrix"
         in="shadowBlurOuter1"
         id="feColorMatrix258" />
    </filter>
    <mask
       id="mask296"
       fill="white">
      <path
         d="m 128,0 c 70.74909,0 128,57.250909 128,128 0,70.74909 -57.25091,128 -128,128 C 57.250909,256 0,198.74909 0,128 0,57.250909 57.250909,0 128,0 Z"
         id="use294" />
    </mask>
    <mask
       id="mask300"
       fill="white">
      <path
         d="m 128,0 c 70.74909,0 128,57.250909 128,128 0,70.74909 -57.25091,128 -128,128 C 57.250909,256 0,198.74909 0,128 0,57.250909 57.250909,0 128,0 Z"
         id="use298" />
    </mask>
  </defs>
  <path
     class="cls-3"
     d="M134.49,28a67,67,0,0,1,11.84,37,62.44,62.44,0,0,0-16.46-18.52,72.41,72.41,0,0,1,8.56,36.33A32.55,32.55,0,0,0,124.62,63c4.3,10.75,8.43,23.54,2.07,33.22a93.11,93.11,0,0,0-6-15,81.23,81.23,0,0,1-10.92,46,59.53,59.53,0,0,0-8.2-29.47,126.3,126.3,0,0,1-5.71,38.43,101.78,101.78,0,0,0-13.14-33.15,133.18,133.18,0,0,1-9.84,28.19,125.09,125.09,0,0,0-9.87-28c-5.64,9.15-4.66,20.73-3.44,31.38A90.38,90.38,0,0,1,47.93,82.83,34.75,34.75,0,0,0,39.86,101c-7.64-9.9-6.49-23.7-5-36.13A61.76,61.76,0,0,0,19.08,84.77C17.73,68,25.93,52.14,33.9,37.29A60.08,60.08,0,0,1,16.35,53.42,270.55,270.55,0,0,0,26.85,22a23.19,23.19,0,0,1-7.51,10.82,7.66,7.66,0,0,1-.53,2.07C14.22,45.06,2.68,58.51,2.06,59.69c0,0,7.28-.82,12.33-5.51C6.58,69.1,19.44,96.9,25.6,103.92c-1.18-3.18-.92-7.67,1.84-9.67-1.35,29.05,22.88,46,22.88,46S47,133.69,49.8,130c1.57,8,35.9,19.14,35.9,35.14,0-16.23,36.92-28,40.76-50.29.62,0,1.57,6.59-.33,9,17.58-10.33,29.18-43.12,27.9-52.6,2.76,3,4.37,9.78,4.37,9.78s10.59-24.5-.33-45.12C153.94,28,150,24.5,146.56,22c1.11,5,3.64,9.58,6.13,14.07A26.36,26.36,0,0,0,134.49,28Z"
     transform="translate(-2.06 -3.03)"
     id="path41" />
  <path
     class="cls-4"
     d="M80.62,25C42.78,24.08,28.26,12.63,28.26,3c0,17.83-8.23,24-8.92,29.83A23.19,23.19,0,0,0,26.85,22a270.55,270.55,0,0,1-10.5,31.38A60.08,60.08,0,0,0,33.9,37.29C25.93,52.14,17.73,68,19.08,84.77A61.35,61.35,0,0,1,34.85,64.9c-1.48,12.43-2.59,26.26,5,36.23A34.7,34.7,0,0,1,48,82.93a90.45,90.45,0,0,0,11.61,51.84c-1.18-10.65-2.2-22.23,3.44-31.38a124.08,124.08,0,0,1,9.87,28,133.07,133.07,0,0,0,9.84-28.2,101.58,101.58,0,0,1,13.15,33.15,126.2,126.2,0,0,0,5.7-38.43,59.88,59.88,0,0,1,8.2,29.48,81.17,81.17,0,0,0,10.92-46,94.68,94.68,0,0,1,6,15c6.36-9.7,2.23-22.49-2.06-33.21A32.7,32.7,0,0,1,138.46,83a72.41,72.41,0,0,0-8.56-36.33,62.44,62.44,0,0,1,16.46,18.52,67.06,67.06,0,0,0-11.83-37,26.13,26.13,0,0,1,18.19,8.07c-2.49-4.49-5-9.08-6.13-14.07-5.54-3.93-9.93-5.44-12.43-19C134.13,12.63,118.49,25.91,80.62,25Z"
     transform="translate(-2.06 -3.03)"
     id="path43" />
  <path
     class="cls-5"
     d="M60,31.22c-6.69,5.81-7.93,18.3-6.65,27A21.76,21.76,0,0,1,59.6,47.62c-1.67,5,.17,10.46,2.17,15.38,2.39,5.9,5.08,11.74,9,16.72a35.1,35.1,0,0,1,1.37-20.53c0,2.46,1.32,4.73,2.5,6.89a119.6,119.6,0,0,1,11.8,31.58c5.34-10.63,3.61-23.38,7-34.76,4.85,4.85,6.06,12.13,6.82,18.92a49.92,49.92,0,0,0,4.59-28.53A29,29,0,0,1,112.75,66a46.24,46.24,0,0,0-1-23.38c-1.48-4.75-4.07-9.6-8.63-11.74a18.79,18.79,0,0,0-5.54-1.44c-3.28-.46-6.59-.72-9.9-1a64.1,64.1,0,0,0-12.23-.1,21.75,21.75,0,0,0-11.25,4.36"
     transform="translate(-2.06 -3.03)"
     id="path45" />
  <path
     class="cls-6"
     d="M61,30.11C59.11,47,95.34,57.85,104.46,31.55,107.28,23.42,61.44,25.78,61,30.11Z"
     transform="translate(-2.06 -3.03)"
     id="path47" />
  <path
     class="cls-2"
     d="M63.8,36.34c0,2.66,37.25,1.77,37.18-.66,0-.52.26-6.13.3-6.75-10.46.56-28.36.29-37.51,3.08l0,4.33Z"
     transform="translate(-2.06 -3.03)"
     id="path49" />
  <path
     class="cls-5"
     d="M82.36,23.36c6.59,6.85,41.41,8.06,50.3-2.53-6.07,5.08-14.14,4.56-16.89,3.54a7.67,7.67,0,0,0,5.64-5.9c-15.18,15.31-19.64-10.95-38.85,3.08C66.69,10,56.26,26.37,44.16,20.7l5.15,3.67s-7.58,5-16.89-3.54a21.39,21.39,0,0,0,4.23,4.69C49.63,30,76.19,28.27,82.36,23.36Z"
     transform="translate(-2.06 -3.03)"
     id="path51" />
  <path
     class="cls-3"
     d="M82.56,29.42c11.67,6.49,40.42,6.2,50.1-8.56h0c-8.89,10.56-43.71,9.35-50.3,2.5C76.19,28.27,49.63,30,36.65,25.52,48.75,35.59,72.26,35.16,82.56,29.42Z"
     transform="translate(-2.06 -3.03)"
     id="path53" />
  <path
     class="cls-3"
     d="M86.52,159.66c-6.75,3.77-15.9,24.2,1.31,40.33-1.31-15.15,14.3-23.81-1.31-40.33"
     transform="translate(-2.06 -3.03)"
     id="path55" />
  <path
     class="cls-4"
     d="M86.13,159.66c-3.31,3.77-6.72,24.2,1.74,40.33-.66-15.15,5.9-23.81-1.74-40.33"
     transform="translate(-2.06 -3.03)"
     id="path57" />
  <path
     class="cls-7"
     d="M66.59,156.41c1.34-2.65,18.72,2.66,18.72,2.66s15.31-6.1,18.1-5.15,1.87,15.71,0,15.71-18.07-8.27-18.07-8.27-15.64,8.5-17.18,8.27S65.8,158,66.59,156.41Z"
     transform="translate(-2.06 -3.03)"
     id="path59" />
  <g
     id="g276"
     transform="matrix(0.69895735,0,0,0.69895735,167.27886,7.9495042)">
    <mask
       id="mask306"
       fill="#ffffff">
      <path
         d="m 128,0 c 70.74909,0 128,57.250909 128,128 0,70.74909 -57.25091,128 -128,128 C 57.250909,256 0,198.74909 0,128 0,57.250909 57.250909,0 128,0 Z"
         id="use304" />
    </mask>
    <g
       mask="url(#mask-2)"
       id="g270">
      <path
         d="m 128,3 c 69.09091,0 125,55.909091 125,125 0,69.09091 -55.90909,125 -125,125 C 58.909091,253 3,197.09091 3,128 3,58.909091 58.909091,3 128,3 Z"
         id="use266"
         style="fill:#000000;fill-opacity:1;filter:url(#filter-4)" />
      <path
         d="m 128,3 c 69.09091,0 125,55.909091 125,125 0,69.09091 -55.90909,125 -125,125 C 58.909091,253 3,197.09091 3,128 3,58.909091 58.909091,3 128,3 Z"
         id="use268"
         style="fill:#ffffff;fill-rule:evenodd" />
    </g>
    <path
       d="M 128,7.3859649 C 194.66667,7.3859649 248.61403,61.333333 248.61403,128 248.61403,194.66667 194.66667,248.61403 128,248.61403 61.333333,248.61403 7.3859649,194.66667 7.3859649,128 7.3859649,61.333333 61.333333,7.3859649 128,7.3859649 Z"
       fill="#5c5c5e"
       mask="url(#mask-2)"
       id="path272" />
    <path
       d="m 192.03509,181.07017 c -4.38597,13.5965 -10.96492,23.68422 -20.17544,31.14036 -9.21053,7.45614 -21.49123,11.4035 -36.84211,12.71929 l -3.07017,-20.17543 c 10.08772,-1.31579 17.54386,-3.50878 22.36842,-7.01755 1.75438,-1.31579 5.26316,-5.26316 5.26316,-5.26316 L 123.17544,75.807017 h 30.26316 l 21.05263,87.280703 22.36842,-87.280703 h 29.38596 z M 86.333333,71.859649 c 7.017544,0 13.596492,0.877193 18.859647,3.070176 5.70176,2.192982 10.96491,5.263157 16.22807,9.649122 l -12.2807,16.666663 c -3.50877,-2.631575 -7.01754,-4.385961 -10.087718,-5.70175 -3.070176,-1.31579 -7.017544,-1.754386 -10.526316,-1.754386 -14.912281,0 -22.368421,11.403506 -22.368421,34.649126 0,11.8421 1.754386,20.17543 5.701754,25 3.947368,5.26315 9.210526,7.45614 16.666667,7.45614 3.508772,0 7.017544,-0.4386 10.087719,-1.75439 3.070175,-1.31579 6.578945,-3.07018 10.964915,-5.70175 l 12.2807,17.54386 c -10.08772,8.33333 -21.49123,12.2807 -34.649124,12.2807 -10.526315,0 -19.298245,-2.19299 -27.192982,-6.57895 C 52.561403,172.29825 46.421053,165.7193 42.473684,157.38596 38.526316,149.05263 36.333333,139.40351 36.333333,128 c 0,-10.96491 2.192983,-21.05263 6.140351,-29.385965 3.947369,-8.77193 10.087719,-15.350877 17.54386,-20.175438 7.45614,-3.947369 16.22807,-6.578948 26.315789,-6.578948 z"
       fill="#ffffff"
       mask="url(#mask-2)"
       id="path274" />
  </g>
</svg>
